HIERARCHY
ROOT root
{
	OFFSET	0	13.1	24.9
	CHANNELS 6  Xposition Yposition Zposition Xrotation Yrotation Zrotation
	JOINT spine_1
	{
		OFFSET	0	9.99999	0
		CHANNELS 3  Xrotation Yrotation Zrotation
		JOINT spine_2
		{
			OFFSET	0	112	-10
			CHANNELS 3  Xrotation Yrotation Zrotation
			JOINT spine_3
			{
				OFFSET	0	206.5	19.3
				CHANNELS 3  Xrotation Yrotation Zrotation
				JOINT spine_4
				{
					OFFSET	0	110.4	14.6
					CHANNELS 3  Xrotation Yrotation Zrotation
					JOINT neck_1
					{
						OFFSET	0	71.8	-50.3
						CHANNELS 3  Xrotation Yrotation Zrotation
						JOINT neck_2
						{
							OFFSET	0	86.2	-25.8
							CHANNELS 3  Xrotation Yrotation Zrotation
							JOINT head_ee
							{
								OFFSET	0	179.8	-8.7
								CHANNELS 3  Xrotation Yrotation Zrotation
								End Site
								{
									OFFSET	1	0	0
								}
							}
						}
					}
					JOINT left_clavicle
					{
						OFFSET	-43.2	22.4	-70.8
						CHANNELS 3  Xrotation Yrotation Zrotation
						JOINT left_shoulder
						{
							OFFSET	-93.9	-5.79999	48.7
							CHANNELS 3  Xrotation Yrotation Zrotation
							JOINT left_elbow
							{
								OFFSET	-291.4	-30.8	15.2
								CHANNELS 3  Xrotation Yrotation Zrotation
								JOINT left_lowarm_twist
								{
									OFFSET	-110.7	-3.89999	13.6
									CHANNELS 3  Xrotation Yrotation Zrotation
									JOINT left_hand
									{
										OFFSET	-110.7	-3.89999	13.6
										CHANNELS 3  Xrotation Yrotation Zrotation
										JOINT left_ee
										{
											OFFSET	-80.8	-5.10001	12.1
											CHANNELS 3  Xrotation Yrotation Zrotation
											End Site
											{
												OFFSET	1	0	0
											}
										}
									}
								}
							}
						}
					}
					JOINT right_clavicle
					{
						OFFSET	43.2	22.4	-70.8
						CHANNELS 3  Xrotation Yrotation Zrotation
						JOINT right_shoulder
						{
							OFFSET	93.9	-5.79999	48.7
							CHANNELS 3  Xrotation Yrotation Zrotation
							JOINT right_elbow
							{
								OFFSET	291.4	-30.8	15.2
								CHANNELS 3  Xrotation Yrotation Zrotation
								JOINT right_lowarm_twist
								{
									OFFSET	110.7	-3.89999	13.6
									CHANNELS 3  Xrotation Yrotation Zrotation
									JOINT right_hand
									{
										OFFSET	110.7	-3.89999	13.6
										CHANNELS 3  Xrotation Yrotation Zrotation
										JOINT right_ee
										{
											OFFSET	80.8	-5.10001	12.1
											CHANNELS 3  Xrotation Yrotation Zrotation
											End Site
											{
												OFFSET	1	0	0
											}
										}
									}
								}
							}
						}
					}
				}
			}
		}
	}
	JOINT left_hip
	{
		OFFSET	-82.8	-127.5	0.300001
		CHANNELS 3  Xrotation Yrotation Zrotation
		JOINT left_knee
		{
			OFFSET	-28.2	-396.7	2.2
			CHANNELS 3  Xrotation Yrotation Zrotation
			JOINT left_ankle
			{
				OFFSET	-11.7	-411.3	35.4
				CHANNELS 3  Xrotation Yrotation Zrotation
				JOINT left_toes
				{
					OFFSET	0	-60	-88.6
					CHANNELS 3  Xrotation Yrotation Zrotation
					JOINT left_foot_ee
					{
						OFFSET	-22.5	-16.5	-42.2
						CHANNELS 3  Xrotation Yrotation Zrotation
						End Site
						{
							OFFSET	1	0	0
						}
					}
				}
			}
		}
	}
	JOINT right_hip
	{
		OFFSET	82.8	-127.5	0.300001
		CHANNELS 3  Xrotation Yrotation Zrotation
		JOINT right_knee
		{
			OFFSET	28.2	-396.7	2.2
			CHANNELS 3  Xrotation Yrotation Zrotation
			JOINT right_ankle
			{
				OFFSET	11.7	-411.3	35.4
				CHANNELS 3  Xrotation Yrotation Zrotation
				JOINT right_toes
				{
					OFFSET	0	-60	-88.6
					CHANNELS 3  Xrotation Yrotation Zrotation
					JOINT right_foot_ee
					{
						OFFSET	22.5	-16.5	-42.2
						CHANNELS 3  Xrotation Yrotation Zrotation
						End Site
						{
							OFFSET	1	0	0
						}
					}
				}
			}
		}
	}
}
MOTION
Frames: 11
Frame Time: 0.02
1262.06 707.665 -1532.05 16.0947 78.4788 -19.5661 -2.36453 0.368833 2.07292 -2.36217 0.236209 2.09218 -2.35069 -0.294625 2.08476 -2.35675 0.0382454 2.10512 -1.66161 6.48389 -0.885346 -1.56754 12.3913 -0.116959 -0.0 0.0 -0.0 1.6809 -0.0251655 3.23574 12.1348 -16.0503 56.4096 3.8478 -62.2998 2.32627 -21.4672 -1.22855 2.43852 0.366066 2.51174 3.48332 -0.0 0.0 -0.0 10.3466 5.17424 -20.5673 -38.0192 39.0157 -53.7249 0.574041 15.8739 -0.080033 -57.3435 4.95435 -5.01082 9.2449 24.4312 -57.4693 0.0 0.0 0.0 -12.4066 -7.50865 7.32985 -20.8707 0.284273 3.17247 35.1973 6.54256 -4.4182 -5.24369 0.0 0.0 -0.0 0.0 -0.0 24.8478 20.4704 -3.80262 3.22128 0.145993 0.472646 11.4 -15.1483 1.62575 -19.4835 0.0 0.0 0.0 0.0 0.0 
1245.89 704.087 -1532.52 19.4193 80.2632 -23.4745 -2.40128 0.28458 2.15069 -2.39872 0.147182 2.16443 -2.39022 -0.400437 2.13216 -2.39656 -0.0587593 2.16863 -1.48552 6.45908 -0.968543 -1.38743 12.4016 -0.225239 -0.0 0.0 -0.0 1.73999 -0.1997 3.33411 10.7797 -16.4564 56.8284 3.83448 -62.2181 2.31448 -21.701 -1.24681 2.46226 0.410178 2.35138 3.71054 -0.0 0.0 -0.0 10.4814 5.08445 -20.8553 -37.7103 39.2261 -53.3177 0.585176 16.1659 -0.0831059 -57.4386 4.96604 -5.01432 9.2526 24.3961 -57.5992 0.0 0.0 0.0 -12.5601 -7.46232 7.81931 -21.2595 0.278543 3.23186 35.5225 6.39399 -4.44941 -5.17528 0.0 0.0 -0.0 0.0 -0.0 25.1438 20.3632 -4.09931 2.77339 0.124104 0.40742 11.1867 -15.2194 1.59677 -19.0983 0.0 0.0 0.0 0.0 0.0 
1225.94 706.446 -1536.56 21.3432 80.8601 -25.3776 -2.59372 0.230216 2.19819 -2.59103 0.0899081 2.20838 -2.58448 -0.474277 2.15874 -2.59096 -0.127479 2.20653 -1.05884 6.47408 -1.09298 -0.950575 12.5011 -0.397409 -0.0 0.0 -0.0 1.70802 -0.377137 3.25654 8.23314 -16.5476 57.3256 3.74379 -61.6496 2.23446 -21.9015 -1.26256 2.48255 0.489071 2.25292 4.19481 -0.0 0.0 -0.0 10.5738 5.06251 -21.0539 -37.5917 39.7532 -52.6831 0.600946 16.5779 -0.087551 -57.6766 4.9953 -5.02299 9.25663 24.3706 -57.6768 0.0 0.0 0.0 -13.5112 -7.51477 7.39561 -21.8235 0.269517 3.31793 35.7481 6.41883 -4.47108 -5.1286 0.0 0.0 -0.0 0.0 -0.0 25.1698 20.4338 -2.84349 2.45218 0.10872 0.36054 10.5963 -15.4442 1.51632 -18.9275 0.0 0.0 0.0 0.0 0.0 
1202.55 708.0 -1538.86 26.7966 81.6736 -32.1829 -2.73258 0.178843 2.33177 -2.72956 0.0301455 2.33842 -2.72489 -0.570763 2.26793 -2.73201 -0.205525 2.32957 2.92322 6.58733 -1.73014 3.12104 12.9621 -1.47421 -0.0 0.0 -0.0 1.5054 -0.70467 2.83445 4.65739 -18.0307 57.9297 3.62586 -60.8776 2.13105 -21.0727 -1.19794 2.3983 0.640582 2.4045 5.26515 -0.0 0.0 -0.0 10.8343 4.77453 -21.6083 -36.7705 39.9406 -50.9691 0.616106 16.9724 -0.0919266 -57.4845 4.97168 -5.01601 9.28847 24.2925 -58.1298 0.0 0.0 0.0 -13.2025 -6.42556 7.91701 -22.5191 0.257217 3.42396 35.2047 4.66958 -4.41877 -5.75479 0.0 0.0 -0.0 0.0 -0.0 22.8225 20.4888 -1.64417 1.1129 0.0474253 0.164191 7.24483 -15.7772 1.0487 -18.1096 0.0 0.0 0.0 0.0 0.0 
1175.21 710.525 -1541.27 35.0971 81.7262 -40.674 -2.98137 0.18634 2.37617 -2.97823 0.0348043 2.38321 -2.97301 -0.587773 2.30989 -2.9804 -0.2157 2.37369 7.57986 6.42594 -2.81723 7.90595 13.2995 -3.19962 -0.0 0.0 -0.0 1.18852 -1.15116 2.17623 1.56494 -19.7098 57.8199 3.19795 -57.7253 1.76296 -20.4942 -1.15358 2.33896 0.797725 1.99073 6.1457 -0.0 0.0 -0.0 10.865 3.8616 -21.6446 -36.6925 40.6372 -49.2636 0.627123 17.258 -0.0951689 -57.4047 4.96186 -5.01308 9.14092 24.347 -56.4631 0.0 0.0 0.0 -13.7043 -5.6094 6.61195 -26.2826 0.168407 3.99458 34.9241 3.43367 -4.39411 -5.35302 0.0 0.0 -0.0 0.0 -0.0 19.5175 20.9122 -1.11588 -6.19377 -0.205014 -0.927992 4.43534 -16.4017 0.648206 -16.1893 0.0 0.0 0.0 0.0 0.0 
1148.54 708.106 -1551.08 54.6837 83.0571 -60.1752 -3.18284 0.104745 2.41914 -3.17959 -0.0493579 2.4209 -3.17782 -0.687235 2.32189 -3.18521 -0.312023 2.40123 10.2704 6.29744 -3.4439 10.6807 13.4523 -4.23462 -0.0 0.0 -0.0 1.07339 -1.44179 1.92289 -0.909074 -20.887 57.6833 2.94064 -55.5201 1.54805 -20.5474 -1.15763 2.34443 0.961729 0.838392 6.77749 -0.0 0.0 -0.0 10.9907 1.58656 -21.8118 -36.9906 40.7348 -49.2385 0.663054 18.1832 -0.106106 -57.3678 4.95734 -5.01172 8.96209 24.3584 -54.5883 0.0 0.0 0.0 -14.4549 -4.97087 6.39324 -29.3685 0.0677349 4.45742 34.8432 2.29546 -4.39038 -5.13715 0.0 0.0 -0.0 0.0 -0.0 17.7254 20.8195 -2.07532 -13.4154 -0.315963 -2.02984 2.49313 -16.811 0.366604 -14.4081 0.0 0.0 0.0 0.0 0.0 
1122.55 712.042 -1559.26 71.939 82.5605 -77.6732 -3.44777 0.216229 2.59137 -3.44404 0.0509522 2.59987 -3.43679 -0.649142 2.5181 -3.44556 -0.243449 2.58896 10.3047 5.681 -4.38113 10.7491 13.2994 -5.39254 -0.0 0.0 -0.0 1.0211 -1.56276 1.80856 -3.94565 -22.3395 57.6161 2.7303 -53.5124 1.37675 -20.5904 -1.16091 2.34885 1.06573 0.0202754 7.14466 -0.0 0.0 -0.0 11.0676 0.235083 -21.8952 -36.5463 41.0925 -48.7298 0.690572 18.8853 -0.114853 -57.1826 4.93459 -5.00486 8.68915 23.9149 -52.374 0.0 0.0 0.0 -14.9788 -5.0398 4.75512 -31.5056 -0.0165391 4.77453 34.786 1.49015 -4.38879 -5.16129 0.0 0.0 -0.0 0.0 -0.0 16.5845 20.8042 -2.78949 -18.4712 -0.310699 -2.80528 1.36223 -17.0721 0.201008 -13.1578 0.0 0.0 0.0 0.0 0.0 
1109.54 721.601 -1566.97 82.4041 82.6882 -87.6741 -3.57446 0.321436 2.62897 -3.57063 0.153557 2.64408 -3.55807 -0.567575 2.58704 -3.56737 -0.152027 2.64417 10.3336 5.77216 -5.05652 10.8538 14.0632 -6.23688 -0.0 0.0 -0.0 0.943935 -0.987266 1.71728 -6.08198 -22.7029 57.3774 2.5147 -51.2358 1.20596 -20.9444 -1.18805 2.38518 1.08041 -1.12877 6.77489 -0.0 0.0 -0.0 11.1094 -1.04505 -21.8947 -35.9589 41.3995 -48.2561 0.762355 20.6889 -0.139157 -57.0545 4.91888 -5.00008 8.35703 22.7418 -50.4244 0.0 0.0 0.0 -13.6906 -4.96652 4.01164 -33.4928 -0.105485 5.06647 35.7756 -0.00727543 -4.49356 -6.21321 0.0 0.0 -0.0 0.0 -0.0 15.1478 21.6789 -3.77489 -22.1693 -0.263563 -3.37066 4.89952 -16.0712 0.714549 -11.4808 0.0 0.0 0.0 0.0 0.0 
1097.56 725.792 -1572.67 81.2864 82.2652 -86.5404 -3.64771 0.419689 2.61946 -3.64393 0.252215 2.64084 -3.62654 -0.474742 2.61005 -3.63604 -0.0567267 2.65224 9.14687 6.03926 -5.45728 9.70666 14.9303 -6.58077 -0.0 0.0 -0.0 0.847651 0.293682 1.66385 -7.58221 -22.6088 57.2818 2.34154 -49.2276 1.07284 -21.1836 -1.20652 2.40963 1.08983 -1.8852 6.52793 -0.0 0.0 -0.0 11.1073 -1.30901 -21.8706 -33.5635 42.5973 -46.7377 0.817738 22.0519 -0.159339 -57.2256 4.93988 -5.00646 8.10794 21.8851 -48.9293 0.0 0.0 0.0 -12.7427 -4.91392 3.47225 -34.8651 -0.172807 5.26623 36.4759 -1.0324 -4.56801 -6.93795 0.0 0.0 -0.0 0.0 -0.0 14.1364 22.3181 -4.39734 -24.3924 -0.217699 -3.70871 7.36771 -15.3688 1.06509 -10.3002 0.0 0.0 0.0 0.0 0.0 
1091.89 715.352 -1574.5 78.772 82.2107 -84.1355 -3.65828 0.588318 2.67357 -3.6544 0.417064 2.70555 -3.62829 -0.3336 2.7171 -3.63858 0.0995359 2.73568 6.76281 7.10502 -4.67227 7.27961 16.1467 -5.30335 -0.0 0.0 -0.0 0.705123 1.16416 1.48265 -8.66972 -22.2946 57.584 2.1286 -46.5123 0.914876 -21.3277 -1.2177 2.42433 1.0813 -1.82024 6.49707 -0.0 0.0 -0.0 11.0847 -1.54025 -21.806 -31.9687 43.3792 -45.3371 0.869673 23.3066 -0.179365 -57.4262 4.96451 -5.01387 7.67763 20.8149 -45.9718 0.0 0.0 0.0 -11.9143 -7.38183 2.62543 -35.8251 -0.222744 5.40501 37.2798 -0.586098 -4.63871 -7.39139 0.0 0.0 -0.0 0.0 -0.0 13.0106 22.8821 -4.47069 -22.4726 -0.258079 -3.41688 9.0886 -14.8675 1.30538 -9.61687 0.0 0.0 0.0 0.0 0.0 
1082.09 725.563 -1582.77 76.361 82.2105 -81.7659 -3.62179 0.749966 2.69321 -3.61794 0.577136 2.73543 -3.58355 -0.185305 2.78946 -3.59432 0.257389 2.78374 4.06562 8.35929 -3.47361 4.50636 17.4421 -3.49353 -0.0 0.0 -0.0 0.682809 1.41705 1.46707 -9.32138 -22.5482 58.0908 1.89275 -43.1514 0.74852 -20.9835 -1.19106 2.38918 0.961143 0.0426836 6.45017 -0.0 0.0 -0.0 11.2943 -1.77314 -22.2239 -30.4524 44.0997 -44.3469 0.925564 24.631 -0.202072 -57.5582 4.98073 -5.01869 6.99509 18.7001 -41.7216 0.0 0.0 0.0 -9.74398 -9.75649 1.81711 -37.0904 -0.292112 5.58663 37.8451 -0.273608 -4.68776 -7.72043 0.0 0.0 -0.0 0.0 -0.0 11.0688 23.2431 -4.15735 -18.0603 -0.313682 -2.7423 10.2608 -14.5486 1.4671 -8.86721 0.0 0.0 0.0 0.0 0.0 
